<svg id="visual" viewBox="0 0 900 600" width="900" height="600" xmlns="http://www.w3.org/2000/svg" xmlns:xlink="http://www.w3.org/1999/xlink" version="1.1"><path d="M0 97L13.7 98C27.3 99 54.7 101 82 99C109.3 97 136.7 91 163.8 83C191 75 218 65 245.2 68C272.3 71 299.7 87 327 85C354.3 83 381.7 63 409 53C436.3 43 463.7 43 491 52C518.3 61 545.7 79 573 86C600.3 93 627.7 89 654.8 87C682 85 709 85 736.2 83C763.3 81 790.7 77 818 71C845.3 65 872.7 57 886.3 53L900 49L900 0L886.3 0C872.7 0 845.3 0 818 0C790.7 0 763.3 0 736.2 0C709 0 682 0 654.8 0C627.7 0 600.3 0 573 0C545.7 0 518.3 0 491 0C463.7 0 436.3 0 409 0C381.7 0 354.3 0 327 0C299.7 0 272.3 0 245.2 0C218 0 191 0 163.8 0C136.7 0 109.3 0 82 0C54.7 0 27.3 0 13.7 0L0 0Z" fill="#ffffff"></path><path d="M0 253L13.7 268C27.3 283 54.7 313 82 308C109.3 303 136.7 263 163.8 256C191 249 218 275 245.2 287C272.3 299 299.7 297 327 287C354.3 277 381.7 259 409 260C436.3 261 463.7 281 491 285C518.3 289 545.7 277 573 262C600.3 247 627.7 229 654.8 232C682 235 709 259 736.2 254C763.3 249 790.7 215 818 204C845.3 193 872.7 205 886.3 211L900 217L900 47L886.3 51C872.7 55 845.3 63 818 69C790.7 75 763.3 79 736.2 81C709 83 682 83 654.8 85C627.7 87 600.3 91 573 84C545.7 77 518.3 59 491 50C463.7 41 436.3 41 409 51C381.7 61 354.3 81 327 83C299.7 85 272.3 69 245.2 66C218 63 191 73 163.8 81C136.7 89 109.3 95 82 97C54.7 99 27.3 97 13.7 96L0 95Z" fill="#fff3f3"></path><path d="M0 373L13.7 382C27.3 391 54.7 409 82 401C109.3 393 136.7 359 163.8 350C191 341 218 357 245.2 364C272.3 371 299.7 369 327 357C354.3 345 381.7 323 409 321C436.3 319 463.7 337 491 351C518.3 365 545.7 375 573 365C600.3 355 627.7 325 654.8 316C682 307 709 319 736.2 321C763.3 323 790.7 315 818 313C845.3 311 872.7 315 886.3 317L900 319L900 215L886.3 209C872.7 203 845.3 191 818 202C790.7 213 763.3 247 736.2 252C709 257 682 233 654.8 230C627.7 227 600.3 245 573 260C545.7 275 518.3 287 491 283C463.7 279 436.3 259 409 258C381.7 257 354.3 275 327 285C299.7 295 272.3 297 245.2 285C218 273 191 247 163.8 254C136.7 261 109.3 301 82 306C54.7 311 27.3 281 13.7 266L0 251Z" fill="#ffe7e7"></path><path d="M0 457L13.7 461C27.3 465 54.7 473 82 470C109.3 467 136.7 453 163.8 458C191 463 218 487 245.2 485C272.3 483 299.7 455 327 438C354.3 421 381.7 415 409 414C436.3 413 463.7 417 491 426C518.3 435 545.7 449 573 450C600.3 451 627.7 439 654.8 433C682 427 709 427 736.2 429C763.3 431 790.7 435 818 428C845.3 421 872.7 403 886.3 394L900 385L900 317L886.3 315C872.7 313 845.3 309 818 311C790.7 313 763.3 321 736.2 319C709 317 682 305 654.8 314C627.7 323 600.3 353 573 363C545.7 373 518.3 363 491 349C463.7 335 436.3 317 409 319C381.7 321 354.3 343 327 355C299.7 367 272.3 369 245.2 362C218 355 191 339 163.8 348C136.7 357 109.3 391 82 399C54.7 407 27.3 389 13.7 380L0 371Z" fill="#ffdbdb"></path><path d="M0 601L13.7 601C27.3 601 54.7 601 82 601C109.3 601 136.7 601 163.8 601C191 601 218 601 245.2 601C272.3 601 299.7 601 327 601C354.3 601 381.7 601 409 601C436.3 601 463.7 601 491 601C518.3 601 545.7 601 573 601C600.3 601 627.7 601 654.8 601C682 601 709 601 736.2 601C763.3 601 790.7 601 818 601C845.3 601 872.7 601 886.3 601L900 601L900 383L886.3 392C872.7 401 845.3 419 818 426C790.7 433 763.3 429 736.2 427C709 425 682 425 654.8 431C627.7 437 600.3 449 573 448C545.7 447 518.3 433 491 424C463.7 415 436.3 411 409 412C381.7 413 354.3 419 327 436C299.7 453 272.3 481 245.2 483C218 485 191 461 163.8 456C136.7 451 109.3 465 82 468C54.7 471 27.3 463 13.7 459L0 455Z" fill="#ffcfcf"></path></svg>